<svg width="1200" height="760" viewBox="0 0 1200 760" fill="none" xmlns="http://www.w3.org/2000/svg">
  <rect width="1200" height="760" fill="#F7F4F1"/>
  <rect x="40" y="30" width="1120" height="700" rx="34" fill="#F9F7F2" stroke="#D9D3CA"/>

  <rect x="90" y="88" width="1020" height="62" rx="18" fill="#F2EFE9" stroke="#D8D2C6"/>

  <g>
    <rect x="122" y="102" width="72" height="30" rx="15" fill="#F3D1A8"/>
    <text x="142" y="123" font-family="Arial, sans-serif" font-size="16" font-weight="700" fill="#8F4C0B">YC</text>
  </g>

  <g>
    <rect x="216" y="102" width="120" height="30" rx="15" fill="#F2E7D8"/>
    <text x="236" y="123" font-family="Arial, sans-serif" font-size="15" font-weight="700" fill="#5B4D42">JEV</text>
  </g>

  <g>
    <rect x="358" y="102" width="116" height="30" rx="15" fill="#DFEAF7"/>
    <text x="382" y="123" font-family="Arial, sans-serif" font-size="15" font-weight="700" fill="#1F5FA8">Algolia</text>
  </g>

  <g>
    <rect x="496" y="102" width="140" height="30" rx="15" fill="#EAE3F8"/>
    <text x="518" y="123" font-family="Arial, sans-serif" font-size="15" font-weight="700" fill="#5A4D8D">Gemini</text>
  </g>

  <g>
    <rect x="90" y="172" width="310" height="180" rx="22" fill="#F1EFE8" stroke="#D8D2C6"/>
    <text x="118" y="224" font-family="Arial, sans-serif" font-size="22" font-weight="700" fill="#24201D">Verve</text>
    <text x="118" y="256" font-family="Arial, sans-serif" font-size="16" font-weight="600" fill="#6A625D">founder intelligence</text>
    <rect x="118" y="282" width="220" height="12" rx="6" fill="#D97706" opacity="0.85"/>
    <rect x="118" y="304" width="170" height="12" rx="6" fill="#D5D0C9"/>
  </g>

  <g>
    <rect x="440" y="172" width="250" height="220" rx="26" fill="#FFFFFF" stroke="#E3DDD4"/>
    <text x="470" y="210" font-family="Arial, sans-serif" font-size="18" font-weight="600" fill="#615A52">live signals</text>
    <rect x="470" y="232" width="170" height="14" rx="7" fill="#ECE5DC"/>
    <rect x="470" y="232" width="130" height="14" rx="7" fill="#D97706"/>
    <rect x="470" y="266" width="170" height="14" rx="7" fill="#ECE5DC"/>
    <rect x="470" y="266" width="156" height="14" rx="7" fill="#D7CAB8"/>
    <text x="470" y="320" font-family="Arial, sans-serif" font-size="15" fill="#4D4843">intent: 93</text>
    <text x="470" y="344" font-family="Arial, sans-serif" font-size="15" fill="#4D4843">fit: 91/100</text>
  </g>

  <g>
    <rect x="730" y="172" width="350" height="220" rx="26" fill="#FFFFFF" stroke="#E3DDD4"/>
    <text x="760" y="210" font-family="Arial, sans-serif" font-size="18" font-weight="600" fill="#615A52">account score</text>
    <rect x="760" y="236" width="260" height="18" rx="9" fill="#ECE5DC"/>
    <rect x="760" y="236" width="238" height="18" rx="9" fill="#D97706"/>
    <rect x="760" y="278" width="260" height="18" rx="9" fill="#ECE5DC"/>
    <rect x="760" y="278" width="214" height="18" rx="9" fill="#C8C0B3"/>
    <text x="760" y="332" font-family="Arial, sans-serif" font-size="15" fill="#4D4843">priority bucket: high fit</text>
  </g>

  <g>
    <rect x="90" y="392" width="990" height="250" rx="30" fill="#F8F5F0" stroke="#D9D3CA"/>
    <text x="128" y="434" font-family="Arial, sans-serif" font-size="18" font-weight="600" fill="#615A52">score trend</text>
    <path d="M170 570 C260 430, 350 470, 430 365 S620 250, 700 390 S860 600, 980 380" fill="none" stroke="#D97706" stroke-width="6" stroke-linecap="round"/>
    <circle cx="170" cy="570" r="12" fill="#D97706"/>
    <circle cx="430" cy="365" r="12" fill="#D97706"/>
    <circle cx="700" cy="390" r="12" fill="#D97706"/>
    <circle cx="980" cy="380" r="12" fill="#D97706"/>

    <rect x="128" y="454" width="180" height="120" rx="18" fill="#FFFFFF" stroke="#D8D0C7"/>
    <text x="150" y="494" font-family="Arial, sans-serif" font-size="18" fill="#5D574F" font-weight="600">signals</text>
    <text x="150" y="528" font-family="Arial, sans-serif" font-size="32" font-weight="700" fill="#1D1B1A">42</text>
    <text x="150" y="552" font-family="Arial, sans-serif" font-size="15" fill="#7A736D">founders</text>

    <rect x="644" y="454" width="180" height="120" rx="18" fill="#FFFFFF" stroke="#D8D0C7"/>
    <text x="666" y="494" font-family="Arial, sans-serif" font-size="18" fill="#5D574F" font-weight="600">score</text>
    <text x="666" y="528" font-family="Arial, sans-serif" font-size="32" font-weight="700" fill="#1D1B1A">91</text>
    <text x="666" y="552" font-family="Arial, sans-serif" font-size="15" fill="#7A736D">ICP fit</text>

    <text x="930" y="465" font-family="Arial, sans-serif" font-size="18" fill="#504A45">YC batch scan</text>
    <text x="930" y="499" font-family="Arial, sans-serif" font-size="18" fill="#504A45">deep founder intel</text>
    <text x="930" y="533" font-family="Arial, sans-serif" font-size="18" fill="#504A45">AI-ready outreach</text>
  </g>
</svg>
